# xmcd CD database file
#
# Track frame offsets:
#	150
#	13578
#	29214
#	45686
#	63397
#	80901
#	98975
#	115760
#	143269
#	147480
#	165678
#	181561
#	194458
#	209424
#
# Disc length: 2954 seconds
#
# Revision: 0
# Processed by: cddbd v1.5.2PL0 Copyright (c) Steve Scherf et al.
# Submitted via: CDex 1.70beta2
#
DISCID=c70b880e
DTITLE=Stone Creek - On down the road
DYEAR=1900
DGENRE=Country
TTITLE0=Old Joe Clark
TTITLE1=Truck Driving Man
TTITLE2=Nine pound hammer
TTITLE3=San Francisco Bay blues
TTITLE4=My train is coming
TTITLE5=Farewell to Nova Scotia
TTITLE6=The star of the County Down
TTITLE7=The town I loved so well
TTITLE8=Rue de Paradis
TTITLE9=Rollin' on
TTITLE10=Jesse James
TTITLE11=Up jumped the devil - Bill Cheatham
TTITLE12=The circle shall abide
TTITLE13=The Orange Blossom Special
EXTD=
EXTT0=
EXTT1=
EXTT2=
EXTT3=
EXTT4=
EXTT5=
EXTT6=
EXTT7=
EXTT8=
EXTT9=
EXTT10=
EXTT11=
EXTT12=
EXTT13=
PLAYORDER=
